<?xml version="1.0" encoding="utf-8"?>
<!-- Generator: Adobe Illustrator 27.5.0, SVG Export Plug-In . SVG Version: 6.00 Build 0)  -->
<svg version="1.1" xmlns="http://www.w3.org/2000/svg" xmlns:xlink="http://www.w3.org/1999/xlink" x="0px" y="0px"
	 viewBox="0 0 500 500" style="enable-background:new 0 0 500 500;" xml:space="preserve">
<g id="Background">
	<rect style="fill:#142236;" width="500" height="500"/>
</g>
<g id="Objects">
	<g>
		<g>
			<g>
				<g>
					<path style="fill:#2579AD;" d="M283.73,97.277c6.666-4.531,14.196-7.871,22.096-10.202c7.91-2.332,16.227-3.488,24.639-3.647
						c8.454-0.136,16.85,1.01,24.838,2.644c8.013,1.643,15.678,3.797,23.113,5.839c7.434,2.053,14.638,3.997,21.69,5.323
						c3.525,0.665,6.998,1.255,10.447,1.655c3.451,0.403,6.842,0.681,10.375,0.749c7.007,0.145,14.012-0.264,20.955-1.745
						c3.475-0.74,6.95-1.742,10.409-3.152c3.472-1.399,6.882-3.234,10.422-5.463c-2.413,8.027-8.552,15.007-15.91,19.794
						c-7.407,4.829-15.951,7.672-24.535,8.961c-4.272,0.646-8.728,0.923-13.085,0.805c-4.362-0.131-8.654-0.62-12.824-1.377
						c-8.348-1.526-16.228-3.873-23.766-6.37c-15.095-5.013-28.91-10.641-43.224-13.144c-7.196-1.309-14.622-1.918-22.189-1.89
						c-7.575,0.026-15.259,0.75-23.162,1.95c-0.22,0.035-0.426-0.115-0.461-0.335C283.534,97.515,283.607,97.363,283.73,97.277z"/>
					<path style="fill:#2579AD;" d="M267.647,101.93c7.116-3.784,14.963-6.292,23.068-7.756c8.116-1.464,16.509-1.716,24.888-0.965
						c8.419,0.777,16.643,2.823,24.408,5.31c7.788,2.498,15.176,5.467,22.347,8.301c7.169,2.843,14.121,5.554,20.988,7.634
						c3.432,1.042,6.822,2.004,10.207,2.773c3.387,0.774,6.728,1.416,10.234,1.865c6.95,0.901,13.958,1.25,21.021,0.527
						c3.535-0.36,7.097-0.981,10.689-2.009c3.603-1.016,7.191-2.472,10.951-4.306c-3.266,7.72-10.123,13.996-17.954,17.961
						c-7.885,4.002-16.687,5.904-25.359,6.26c-4.317,0.181-8.776-0.025-13.096-0.612c-4.322-0.601-8.536-1.55-12.6-2.753
						c-8.134-2.418-15.715-5.603-22.939-8.898c-14.466-6.614-27.592-13.7-41.552-17.734c-7.013-2.078-14.33-3.485-21.855-4.275
						c-7.533-0.792-15.251-0.902-23.237-0.562c-0.223,0.011-0.412-0.161-0.422-0.383
						C267.426,102.146,267.515,102.002,267.647,101.93z"/>
					<path style="fill:#2579AD;" d="M258.599,106.963c7.182-2.957,14.944-4.621,22.855-5.26c7.922-0.638,15.994-0.086,23.96,1.424
						c8,1.541,15.694,4.279,22.906,7.398c7.233,3.131,14.038,6.676,20.648,10.071c6.606,3.404,13.017,6.66,19.407,9.303
						c3.193,1.323,6.353,2.566,9.527,3.624c3.176,1.062,6.319,1.993,9.638,2.755c6.58,1.521,13.268,2.518,20.109,2.491
						c3.424-0.011,6.899-0.271,10.44-0.917c3.551-0.634,7.13-1.692,10.909-3.095c-3.861,7.095-11.029,12.466-18.914,15.529
						c-7.94,3.093-16.56,4.087-24.911,3.608c-4.157-0.234-8.414-0.852-12.501-1.824c-4.088-0.985-8.039-2.293-11.824-3.831
						c-7.572-3.087-14.542-6.857-21.158-10.7c-13.248-7.709-25.168-15.745-38.174-20.932c-6.529-2.655-13.413-4.696-20.555-6.163
						c-7.15-1.471-14.541-2.305-22.232-2.733c-0.214-0.011-0.379-0.193-0.369-0.407
						C258.367,107.149,258.466,107.019,258.599,106.963z"/>
					<path style="fill:#2579AD;" d="M261.707,108.625c5.956-1.509,12.174-1.93,18.359-1.525c6.193,0.407,12.332,1.77,18.25,3.877
						c5.941,2.135,11.474,5.18,16.581,8.469c5.122,3.302,9.855,6.881,14.458,10.319c4.6,3.445,9.592,6.36,14.135,9.179
						c2.27,1.411,4.525,2.754,6.818,3.954c2.294,1.203,4.581,2.299,7.028,3.281c4.85,1.956,9.858,3.511,15.132,4.276
						c2.639,0.385,5.353,0.579,8.173,0.476c2.827-0.092,5.213-0.124,8.325-0.798c-3.992,5.155-10.285,8.57-16.798,10.081
						c-6.559,1.529-13.342,1.322-19.706-0.014c-3.169-0.662-6.359-1.639-9.367-2.875c-3.008-1.247-5.863-2.733-8.557-4.381
						c-5.39-3.306-10.217-7.082-14.762-10.874c-9.098-7.605-17.125-15.315-26.399-20.903c-4.648-2.846-9.658-5.246-14.948-7.225
						c-5.296-1.982-10.869-3.49-16.732-4.711c-0.164-0.033-0.265-0.196-0.225-0.364
						C261.501,108.745,261.596,108.654,261.707,108.625z"/>
					<path style="fill:#2579AD;" d="M268.32,108.454c31.633,6.653,54.232,40.242,74.06,48.004c0,0-18.912,10.666-38.872-10.175
						c-17.74-18.523-24.067-25.339-36.459-30.687L268.32,108.454z"/>
					<path style="fill:#2579AD;" d="M266.95,114.128c20.631,9.236,29.907,32.954,42.308,41.077c0,0-17.171,5.307-27.731-11.336
						c-9.385-14.792-12.471-19.773-20.148-25.173L266.95,114.128z"/>
					<path style="opacity:0.28;fill:#FFFFFF;" d="M299.254,152.36c-4.695-1.236-8.575-4.281-11.575-9.098l-0.45-0.723
						c-4.819-7.736-7.989-12.826-11.174-16.783c6.773,5.257,12.15,12.333,17.048,18.779
						C295.174,147.261,297.197,149.923,299.254,152.36z"/>
					<path style="fill:#2579AD;" d="M263.624,118.628c15.262,10.272,14.468,26.725,21.719,34.339c0,0-13.79,2.243-18.393-10.957
						c-4.09-11.732-4.598-15.458-9.182-21.576L263.624,118.628z"/>
					<path style="opacity:0.28;fill:#FFFFFF;" d="M278.278,149.686c-2.038-1.182-3.852-3.144-4.959-6.32
						c-0.893-2.559-1.612-4.732-2.247-6.65c-0.716-2.161-1.332-4.023-1.961-5.722c3.754,4.535,5.719,9.709,7.637,14.764
						C277.254,147.092,277.753,148.407,278.278,149.686z"/>
					<g style="opacity:0.44;">
						<path style="opacity:0.42;fill:#FFFFFF;" d="M415.469,114.17c3.11,0,6.227-0.262,9.27-0.78
							c7.674-1.298,14.452-4.074,20.148-8.254c1.879-1.376,3.605-2.914,5.147-4.567c-2.025,0.747-4.135,1.381-6.373,1.917
							c-5.259,1.262-10.876,1.876-17.173,1.876c-0.802,0-1.605-0.01-2.4-0.028c-0.023,0-0.047-0.001-0.07-0.002
							c-4.822-0.107-9.573,1.391-13.571,4.425c-1.994,1.513-3.955,2.966-5.882,4.358c3.148,0.573,6.267,0.929,9.278,1.03
							C414.383,114.162,414.925,114.17,415.469,114.17z"/>
						<path style="opacity:0.42;fill:#FFFFFF;" d="M378.773,129.656c4.005,1.186,8.014,2.063,11.899,2.603
							c0.603,0.082,1.209,0.156,1.817,0.222c3.479,0.378,6.995,0.496,10.454,0.351c8.725-0.358,16.606-2.294,23.43-5.758
							c2.251-1.14,4.348-2.459,6.251-3.916c-2.347,0.497-4.775,0.871-7.337,1.131c-6.019,0.616-12.369,0.543-19.413-0.222
							c-0.897-0.098-1.794-0.205-2.682-0.32c-0.686-0.088-1.684-0.256-2.856-0.473c-8.622-1.598-17.549-0.325-25.357,3.667
							c-0.599,0.306-1.194,0.607-1.786,0.903C375.016,128.483,376.879,129.093,378.773,129.656z"/>
						<path style="opacity:0.42;fill:#FFFFFF;" d="M362.551,144.047c3.729,1.516,7.491,2.735,11.166,3.62
							c0.57,0.136,1.144,0.264,1.722,0.385c3.3,0.691,6.661,1.136,9.992,1.324c8.401,0.481,16.142-0.632,23.013-3.309
							c2.266-0.88,4.402-1.947,6.364-3.165c-2.297,0.255-4.662,0.384-7.143,0.392c-5.831,0.022-11.913-0.647-18.596-2.046
							c-0.851-0.178-1.702-0.366-2.541-0.56c-3.182-0.729-6.379-1.642-10.057-2.872c-0.102-0.034-0.213-0.072-0.331-0.113
							c-8.4-2.918-17.525-2.976-25.938-0.095c-0.233,0.08-0.464,0.158-0.695,0.236C353.48,139.968,357.903,142.152,362.551,144.047z
							"/>
						<path style="opacity:0.42;fill:#FFFFFF;" d="M336.454,149.83c2.655,1.624,5.377,3.019,8.081,4.139
							c0.42,0.173,0.844,0.34,1.271,0.501c2.443,0.924,4.968,1.662,7.507,2.193c6.402,1.345,12.525,1.356,18.201,0.033
							c1.872-0.434,3.67-1.031,5.356-1.766c-1.806-0.063-3.646-0.232-5.558-0.511c-4.494-0.653-9.083-1.879-14.03-3.751
							c-0.63-0.238-1.258-0.484-1.877-0.734c-2.347-0.941-4.678-2.029-7.334-3.422c-0.086-0.045-0.18-0.095-0.281-0.15
							c-5.853-3.171-12.561-4.329-19.145-3.351c-0.543,0.081-1.079,0.155-1.609,0.225
							C329.855,145.429,333.042,147.738,336.454,149.83z"/>
						<path style="opacity:0.42;fill:#FFFFFF;" d="M329.278,154.475c-2.24-1.56-4.492-3.273-6.767-5.082
							c-4.085-3.249-8.993-5.257-14.173-5.891c-0.381-0.046-0.756-0.096-1.124-0.149
							C314.138,150.464,321.554,154.207,329.278,154.475z"/>
					</g>
				</g>
				<g>
					<path style="fill:none;" d="M381.754,113.954c0.531,0.168,1.063,0.339,1.593,0.499c3.432,1.042,6.822,2.003,10.207,2.773
						c0.972,0.222,1.94,0.429,2.909,0.628c-0.001-0.061,0.002-0.187,0.023-0.371c-0.042-0.008-0.085-0.013-0.126-0.021
						C391.33,116.544,386.472,115.323,381.754,113.954z"/>
					<path style="opacity:0.38;fill:#2579AD;" d="M420.928,99.638c-3.533-0.068-6.924-0.345-10.375-0.749
						c-3.448-0.4-6.922-0.99-10.447-1.655c-7.052-1.326-14.256-3.27-21.69-5.323c-7.435-2.043-15.1-4.197-23.113-5.839
						c-7.988-1.634-16.385-2.78-24.838-2.644c-8.411,0.159-16.728,1.315-24.639,3.647c-6.349,1.873-12.45,4.412-18.065,7.683
						c-7.055,1.512-13.866,3.85-20.114,7.172c-0.132,0.072-0.221,0.216-0.213,0.376c0.011,0.223,0.2,0.394,0.422,0.383
						c2.313-0.099,4.602-0.154,6.872-0.171c-5.567,0.89-10.997,2.332-16.129,4.445c-0.133,0.056-0.232,0.186-0.24,0.34
						c-0.011,0.214,0.154,0.397,0.369,0.408c1.805,0.1,3.592,0.225,5.364,0.373c-0.799,0.162-1.595,0.341-2.385,0.541
						c-0.111,0.029-0.206,0.12-0.234,0.241c-0.039,0.168,0.062,0.331,0.225,0.364c2.116,0.441,4.182,0.936,6.223,1.46l-0.641,3.601
						c-0.112-0.051-0.217-0.112-0.33-0.162l-5.571,4.568c0.207,0.146,0.409,0.291,0.61,0.436l-4.221,1.302
						c4.145,5.532,4.966,9.128,8.106,18.434c-2.048-15.087,8.488-7.793,8.488-7.793c-2.781-13.298,6.224-6.691,11.855-1.937
						c-0.935-1.051-1.906-2.079-2.897-3.094c5.018,4.404,10.628,10.255,18.633,18.616c-0.33-1.861,1.03-6.052,23.909,0.317
						c0,0-2.055-8.1,20.834-4.715c0,0-4.11-8.866,21.841-9.188c0,0-4.11-8.463,27.926-13.177c0,0-0.001-0.015-0.001-0.043
						c-0.969-0.199-1.937-0.406-2.909-0.628c-3.385-0.77-6.775-1.732-10.207-2.773c-0.53-0.16-1.062-0.331-1.593-0.499
						c4.718,1.369,9.576,2.59,14.606,3.509c0.042,0.007,0.085,0.013,0.126,0.021c0.244-2.112,2.965-11.851,31.987-17.931
						C425.961,99.668,423.444,99.691,420.928,99.638z"/>
				</g>
				<g>
					<path style="fill:#2D91CF;" d="M301.615,82.952c40.322-6.776,79.454,19.792,106.387,19.774c0,0-17.344,21.295-50.474,5.972
						c-29.445-13.618-40.043-18.722-57.106-19.297L301.615,82.952z"/>
					<path style="opacity:0.32;fill:#FFFFFF;" d="M391.659,106.442c-9.359,3.301-19.996,2.249-31.638-3.136l-2.314-1.07
						c-13.616-6.3-23.319-10.79-31.772-13.802c14.836,1.713,29.35,6.558,42.694,11.014
						C376.607,102.112,384.336,104.693,391.659,106.442z"/>
				</g>
				<g>
					<path style="fill:#2D91CF;" d="M279.361,84.655c40.842-1.932,76.537,29.102,103.28,32.287c0,0-19.753,19.081-50.826-0.074
						c-27.617-17.024-37.532-23.352-54.405-25.952L279.361,84.655z"/>
					<path style="opacity:0.32;fill:#FFFFFF;" d="M365.972,118.688c-9.685,2.165-20.121-0.146-31.04-6.877l-2.17-1.338
						c-12.77-7.875-21.87-13.487-29.905-17.483c14.527,3.466,28.361,10.003,41.081,16.013
						C351.542,112.598,358.909,116.08,365.972,118.688z"/>
				</g>
				<g>
					<path style="fill:#2D91CF;" d="M280.246,87.813c-1.581,0.972-3.115,2.019-4.586,3.151c-1.288,0.991-2.517,2.059-3.692,3.183
						c9.559,4.886,18.511,12.501,35.457,26.695c25.956,21.743,46.643,6.874,46.643,6.874
						C333.627,122.203,309.961,97.481,280.246,87.813z"/>
					<path style="opacity:0.32;fill:#FFFFFF;" d="M338.533,127.087c-9.18,0.69-18.45-2.828-27.571-10.469l-1.813-1.518
						c-10.667-8.938-18.268-15.308-25.108-20.052c12.87,5.127,24.693,12.979,35.563,20.2
						C326.103,119.565,332.399,123.747,338.533,127.087z"/>
				</g>
				<g>
					<path style="fill:#2D91CF;" d="M272.519,93.638c-1.693,1.564-3.275,3.246-4.667,5.084c-0.951,1.256-1.808,2.579-2.571,3.954
						c5.844,5.318,12.523,12.356,21.997,22.269c23.264,24.343,45.136,11.723,45.136,11.723
						C314.917,129.834,296.467,107.387,272.519,93.638z"/>
					<path style="opacity:0.32;fill:#FFFFFF;" d="M317.21,134.414c-9.095-0.276-17.842-4.746-26.017-13.3l-1.625-1.7
						c-9.56-10.007-16.372-17.138-22.606-22.573c12.12,6.447,22.929,15.495,32.867,23.815
						C305.77,125.631,311.526,130.45,317.21,134.414z"/>
				</g>
				<g>
					<path style="opacity:0.42;fill:#5C5C5C;" d="M314.79,98.671c40.972,0.234,80.158,15.799,120.386,0.325
						c-4.737,0.575-9.492,0.742-14.249,0.643c-3.533-0.068-6.924-0.346-10.375-0.749c-2.337-0.271-4.687-0.634-7.055-1.044
						c1.854,0.099,3.716,0.177,5.598,0.2c5.628,0.096,11.409-0.344,17.105-1.446c2.843-0.578,5.657-1.331,8.399-2.261
						c2.743-0.928,5.396-2.082,7.95-3.359c5.107-2.578,9.751-5.797,13.942-9.371c4.181-3.597,11.782-12.938,11.407-13.494
						c-6.163,3.749-19.831,10.605-29.202,13.329c-9.363,2.787-18.856,2.98-28.625,1.688c-2.444-0.309-4.905-0.708-7.383-1.166
						c-2.481-0.434-4.981-0.92-7.499-1.445l-15.335-3.275c-10.368-2.199-21.042-4.151-31.861-5.35
						c-5.405-0.637-10.851-1.048-16.302-1.307c-1.364-0.049-2.727-0.117-4.092-0.149c-1.361-0.038-2.714-0.082-4.169-0.069
						c-2.853-0.027-5.736,0.105-8.617,0.32c-5.772,0.481-11.588,1.475-17.299,3.196c-5.702,1.719-11.293,4.172-16.408,7.471
						c-2.559,1.64-4.989,3.493-7.242,5.53c-2.255,2.032-4.367,4.215-6.225,6.582c-3.212,3.996-5.768,8.408-7.705,12.977
						c-0.445,0.172-0.895,0.334-1.336,0.515c-0.133,0.056-0.232,0.186-0.24,0.34c-0.011,0.214,0.154,0.397,0.369,0.408
						c0.227,0.012,0.45,0.029,0.676,0.042c-0.143,0.363-0.293,0.724-0.429,1.088c-2.019,5.427-3.183,11.027-3.615,16.583
						c-0.211,2.78-0.243,5.552-0.082,8.299c0.167,2.742,0.487,5.478,1.139,8.124l0.002,0.008c0.035,0.143,0.148,0.26,0.301,0.295
						c0.216,0.049,0.431-0.087,0.479-0.303c1.151-5.123,2.685-9.998,4.567-14.633c0.857,1.961,1.598,4.118,2.508,6.857
						C268.815,121.464,281.64,98.481,314.79,98.671z"/>
				</g>
				<g>
					<path style="fill:#319DE0;" d="M256.417,141.847c-0.652-2.646-0.972-5.383-1.139-8.124c-0.161-2.747-0.129-5.519,0.082-8.299
						c0.432-5.555,1.596-11.156,3.615-16.583c2.02-5.418,4.895-10.679,8.665-15.37c1.859-2.367,3.97-4.55,6.225-6.582
						c2.253-2.038,4.683-3.89,7.242-5.53c5.115-3.299,10.706-5.752,16.408-7.471c5.71-1.721,11.527-2.714,17.299-3.196
						c2.881-0.215,5.764-0.347,8.617-0.32c1.455-0.013,2.808,0.03,4.169,0.069c1.365,0.032,2.728,0.1,4.092,0.149
						c5.452,0.259,10.897,0.67,16.302,1.307c10.819,1.199,21.492,3.152,31.861,5.35l15.335,3.275
						c2.518,0.524,5.018,1.01,7.499,1.445c2.478,0.458,4.939,0.856,7.383,1.166c9.769,1.291,19.262,1.099,28.625-1.688
						c9.372-2.724,23.039-9.58,29.202-13.329c0.374,0.556-7.226,9.897-11.407,13.494c-4.191,3.574-8.835,6.794-13.942,9.371
						c-2.554,1.278-5.206,2.432-7.95,3.359c-2.741,0.931-5.555,1.683-8.399,2.261c-5.696,1.101-11.477,1.542-17.105,1.446
						c-2.817-0.035-5.603-0.167-8.356-0.358c-2.75-0.215-5.466-0.497-8.154-0.801c-5.38-0.589-10.635-1.387-15.832-2.116
						c-10.387-1.503-20.545-2.925-30.71-3.847c-5.082-0.441-10.155-0.81-15.235-1.045c-1.27-0.048-2.539-0.116-3.81-0.149
						c-1.273-0.039-2.555-0.079-3.736-0.093c-2.418-0.064-4.806,0.017-7.188,0.095c-9.485,0.477-18.644,2.207-26.733,6.087
						c-8.119,3.796-15.129,9.911-20.527,17.949c-1.362,1.996-2.582,4.12-3.762,6.309c-1.136,2.205-2.225,4.483-3.173,6.846
						c-1.937,4.722-3.505,9.697-4.68,14.926c-0.049,0.216-0.263,0.352-0.479,0.303c-0.153-0.034-0.266-0.152-0.301-0.295
						L256.417,141.847z"/>
					<path style="opacity:0.45;fill:#E6F8FF;" d="M261.425,116.918c0.522-2.198,1.173-4.348,1.951-6.439
						c1.94-5.203,4.606-9.936,7.924-14.065c1.616-2.057,3.479-4.026,5.709-6.035c2.054-1.859,4.284-3.562,6.631-5.064
						c4.515-2.913,9.638-5.243,15.231-6.929c5.022-1.514,10.517-2.528,16.333-3.012c2.77-0.206,5.219-0.307,7.473-0.307l0.716,0.004
						l0.584-0.002c1.083,0,2.118,0.03,3.152,0.059l0.338,0.01c0.849,0.021,1.676,0.054,2.502,0.087l1.551,0.06
						c5.723,0.273,10.937,0.691,15.925,1.279c9.35,1.036,19.335,2.714,31.436,5.28l15.328,3.274
						c2.772,0.576,5.278,1.059,7.671,1.477c2.728,0.504,5.22,0.898,7.603,1.199c4.095,0.542,7.906,0.806,11.641,0.806
						c6.734,0,12.921-0.868,18.915-2.652c1.556-0.452,3.107-0.964,4.668-1.54c-1.411,0.863-2.836,1.658-4.271,2.382
						c-2.581,1.291-4.983,2.307-7.338,3.103c-2.518,0.854-5.152,1.563-7.831,2.108c-4.678,0.904-9.617,1.364-14.667,1.364
						c-0.475,0-0.95-0.005-1.425-0.012c-2.551-0.031-5.201-0.145-8.108-0.348c-2.316-0.181-4.772-0.423-7.953-0.783
						c-4.14-0.453-8.27-1.042-12.264-1.612c0,0-2.328-0.332-3.443-0.488c-10.421-1.508-20.634-2.94-30.938-3.874
						c-5.722-0.497-10.771-0.843-15.441-1.06l-1.362-0.057c-0.844-0.037-1.692-0.073-2.541-0.096l-0.365-0.011
						c-1.182-0.036-2.356-0.071-3.445-0.083c-0.582-0.016-1.237-0.023-1.889-0.023c-1.837,0-3.634,0.059-5.37,0.116l-0.136,0.005
						c-11.25,0.564-20.6,2.706-28.608,6.546c-8.822,4.125-16.57,10.892-22.394,19.565
						C263.792,112.796,262.696,114.606,261.425,116.918z"/>
				</g>
			</g>
			<g>
				<g>
					<path style="fill:#2579AD;" d="M216.27,97.277c-6.666-4.531-14.196-7.871-22.096-10.202c-7.91-2.332-16.227-3.488-24.639-3.647
						c-8.454-0.136-16.85,1.01-24.838,2.644c-8.013,1.643-15.678,3.797-23.113,5.839c-7.434,2.053-14.638,3.997-21.69,5.323
						c-3.524,0.665-6.998,1.255-10.447,1.655c-3.451,0.403-6.842,0.681-10.375,0.749c-7.007,0.145-14.012-0.264-20.955-1.745
						c-3.475-0.74-6.95-1.742-10.409-3.152c-3.472-1.399-6.882-3.234-10.422-5.463c2.413,8.027,8.552,15.007,15.91,19.794
						c7.407,4.829,15.951,7.672,24.535,8.961c4.272,0.646,8.728,0.923,13.085,0.805c4.362-0.131,8.653-0.62,12.824-1.377
						c8.348-1.526,16.228-3.873,23.766-6.37c15.095-5.013,28.91-10.641,43.224-13.144c7.196-1.309,14.622-1.918,22.189-1.89
						c7.575,0.026,15.259,0.75,23.162,1.95c0.22,0.035,0.426-0.115,0.461-0.335C216.466,97.515,216.393,97.363,216.27,97.277z"/>
					<path style="fill:#2579AD;" d="M232.353,101.93c-7.116-3.784-14.963-6.292-23.068-7.756
						c-8.116-1.464-16.509-1.716-24.889-0.965c-8.419,0.777-16.642,2.823-24.408,5.31c-7.788,2.498-15.176,5.467-22.347,8.301
						c-7.169,2.843-14.121,5.554-20.988,7.634c-3.432,1.042-6.822,2.004-10.207,2.773c-3.388,0.774-6.728,1.416-10.234,1.865
						c-6.95,0.901-13.958,1.25-21.021,0.527c-3.535-0.36-7.097-0.981-10.689-2.009c-3.603-1.016-7.191-2.472-10.951-4.306
						c3.266,7.72,10.122,13.996,17.954,17.961c7.885,4.002,16.687,5.904,25.359,6.26c4.317,0.181,8.776-0.025,13.096-0.612
						c4.322-0.601,8.536-1.55,12.6-2.753c8.134-2.418,15.715-5.603,22.939-8.898c14.465-6.614,27.592-13.7,41.552-17.734
						c7.013-2.078,14.33-3.485,21.855-4.275c7.533-0.792,15.251-0.902,23.237-0.562c0.222,0.011,0.411-0.161,0.422-0.383
						C232.574,102.146,232.485,102.002,232.353,101.93z"/>
					<path style="fill:#2579AD;" d="M241.401,106.963c-7.182-2.957-14.944-4.621-22.855-5.26c-7.922-0.638-15.994-0.086-23.96,1.424
						c-8.001,1.541-15.694,4.279-22.906,7.398c-7.233,3.131-14.038,6.676-20.648,10.071c-6.606,3.404-13.017,6.66-19.407,9.303
						c-3.193,1.323-6.353,2.566-9.527,3.624c-3.175,1.062-6.319,1.993-9.638,2.755c-6.58,1.521-13.268,2.518-20.109,2.491
						c-3.424-0.011-6.899-0.271-10.44-0.917c-3.551-0.634-7.13-1.692-10.909-3.095c3.861,7.095,11.029,12.466,18.914,15.529
						c7.94,3.093,16.56,4.087,24.911,3.608c4.157-0.234,8.414-0.852,12.501-1.824c4.088-0.985,8.04-2.293,11.824-3.831
						c7.572-3.087,14.542-6.857,21.158-10.7c13.248-7.709,25.167-15.745,38.174-20.932c6.529-2.655,13.413-4.696,20.555-6.163
						c7.15-1.471,14.541-2.305,22.232-2.733c0.214-0.011,0.379-0.193,0.369-0.407C241.633,107.149,241.534,107.019,241.401,106.963z
						"/>
					<path style="fill:#2579AD;" d="M238.293,108.625c-5.956-1.509-12.174-1.93-18.359-1.525c-6.193,0.407-12.332,1.77-18.25,3.877
						c-5.941,2.135-11.474,5.18-16.582,8.469c-5.122,3.302-9.854,6.881-14.458,10.319c-4.6,3.445-9.592,6.36-14.135,9.179
						c-2.27,1.411-4.525,2.754-6.818,3.954c-2.294,1.203-4.581,2.299-7.028,3.281c-4.85,1.956-9.858,3.511-15.132,4.276
						c-2.639,0.385-5.353,0.579-8.173,0.476c-2.826-0.092-5.213-0.124-8.325-0.798c3.992,5.155,10.285,8.57,16.798,10.081
						c6.559,1.529,13.342,1.322,19.705-0.014c3.169-0.662,6.359-1.639,9.367-2.875c3.008-1.247,5.863-2.733,8.557-4.381
						c5.389-3.306,10.217-7.082,14.761-10.874c9.098-7.605,17.126-15.315,26.399-20.903c4.648-2.846,9.658-5.246,14.948-7.225
						c5.296-1.982,10.869-3.49,16.732-4.711c0.163-0.033,0.264-0.196,0.225-0.364C238.499,108.745,238.404,108.654,238.293,108.625z
						"/>
					<path style="fill:#2579AD;" d="M231.68,108.454c-31.633,6.653-54.232,40.242-74.06,48.004c0,0,18.912,10.666,38.872-10.175
						c17.74-18.523,24.067-25.339,36.459-30.687L231.68,108.454z"/>
					<path style="fill:#2579AD;" d="M233.05,114.128c-20.631,9.236-29.907,32.954-42.308,41.077c0,0,17.171,5.307,27.731-11.336
						c9.385-14.792,12.471-19.773,20.148-25.173L233.05,114.128z"/>
					<path style="opacity:0.28;fill:#FFFFFF;" d="M200.746,152.36c4.694-1.236,8.574-4.281,11.575-9.098l0.45-0.723
						c4.818-7.736,7.989-12.826,11.174-16.783c-6.773,5.257-12.15,12.333-17.048,18.779
						C204.826,147.261,202.803,149.923,200.746,152.36z"/>
					<path style="fill:#2579AD;" d="M236.376,118.628c-15.262,10.272-14.468,26.725-21.719,34.339c0,0,13.79,2.243,18.393-10.957
						c4.09-11.732,4.598-15.458,9.182-21.576L236.376,118.628z"/>
					<path style="opacity:0.28;fill:#FFFFFF;" d="M221.722,149.686c2.038-1.182,3.852-3.144,4.959-6.32
						c0.893-2.559,1.612-4.732,2.247-6.65c0.716-2.161,1.332-4.023,1.961-5.722c-3.754,4.535-5.719,9.709-7.637,14.764
						C222.746,147.092,222.246,148.407,221.722,149.686z"/>
					<g style="opacity:0.44;">
						<path style="opacity:0.42;fill:#FFFFFF;" d="M84.531,114.17c-3.11,0-6.227-0.262-9.27-0.78
							c-7.674-1.298-14.452-4.074-20.148-8.254c-1.88-1.376-3.605-2.914-5.147-4.567c2.026,0.747,4.135,1.381,6.374,1.917
							c5.259,1.262,10.876,1.876,17.173,1.876c0.802,0,1.605-0.01,2.4-0.028c0.023,0,0.047-0.001,0.07-0.002
							c4.822-0.107,9.573,1.391,13.571,4.425c1.994,1.513,3.955,2.966,5.882,4.358c-3.148,0.573-6.267,0.929-9.278,1.03
							C85.617,114.162,85.075,114.17,84.531,114.17z"/>
						<path style="opacity:0.42;fill:#FFFFFF;" d="M121.227,129.656c-4.005,1.186-8.014,2.063-11.899,2.603
							c-0.603,0.082-1.209,0.156-1.817,0.222c-3.479,0.378-6.995,0.496-10.454,0.351c-8.725-0.358-16.606-2.294-23.43-5.758
							c-2.251-1.14-4.348-2.459-6.25-3.916c2.347,0.497,4.775,0.871,7.337,1.131c6.019,0.616,12.369,0.543,19.413-0.222
							c0.897-0.098,1.794-0.205,2.681-0.32c0.686-0.088,1.684-0.256,2.856-0.473c8.622-1.598,17.549-0.325,25.357,3.667
							c0.599,0.306,1.194,0.607,1.786,0.903C124.984,128.483,123.121,129.093,121.227,129.656z"/>
						<path style="opacity:0.42;fill:#FFFFFF;" d="M137.449,144.047c-3.729,1.516-7.491,2.735-11.166,3.62
							c-0.571,0.136-1.144,0.264-1.722,0.385c-3.3,0.691-6.661,1.136-9.992,1.324c-8.401,0.481-16.142-0.632-23.013-3.309
							c-2.266-0.88-4.402-1.947-6.364-3.165c2.297,0.255,4.661,0.384,7.143,0.392c5.83,0.022,11.913-0.647,18.596-2.046
							c0.852-0.178,1.702-0.366,2.542-0.56c3.182-0.729,6.379-1.642,10.057-2.872c0.102-0.034,0.213-0.072,0.331-0.113
							c8.4-2.918,17.525-2.976,25.938-0.095c0.233,0.08,0.464,0.158,0.696,0.236C146.52,139.968,142.097,142.152,137.449,144.047z"
							/>
						<path style="opacity:0.42;fill:#FFFFFF;" d="M163.546,149.83c-2.655,1.624-5.377,3.019-8.081,4.139
							c-0.42,0.173-0.844,0.34-1.271,0.501c-2.443,0.924-4.968,1.662-7.507,2.193c-6.402,1.345-12.525,1.356-18.201,0.033
							c-1.872-0.434-3.67-1.031-5.356-1.766c1.806-0.063,3.646-0.232,5.558-0.511c4.494-0.653,9.083-1.879,14.03-3.751
							c0.63-0.238,1.258-0.484,1.877-0.734c2.347-0.941,4.678-2.029,7.334-3.422c0.086-0.045,0.18-0.095,0.281-0.15
							c5.853-3.171,12.561-4.329,19.145-3.351c0.543,0.081,1.079,0.155,1.609,0.225C170.145,145.429,166.958,147.738,163.546,149.83
							z"/>
						<path style="opacity:0.42;fill:#FFFFFF;" d="M170.722,154.475c2.24-1.56,4.492-3.273,6.767-5.082
							c4.085-3.249,8.993-5.257,14.173-5.891c0.381-0.046,0.756-0.096,1.124-0.149C185.862,150.464,178.446,154.207,170.722,154.475
							z"/>
					</g>
				</g>
				<g>
					<path style="fill:none;" d="M118.246,113.954c-0.531,0.168-1.063,0.339-1.593,0.499c-3.432,1.042-6.822,2.003-10.207,2.773
						c-0.972,0.222-1.94,0.429-2.909,0.628c0.001-0.061-0.002-0.187-0.023-0.371c0.042-0.008,0.085-0.013,0.127-0.021
						C108.67,116.544,113.528,115.323,118.246,113.954z"/>
					<path style="opacity:0.38;fill:#2579AD;" d="M79.072,99.638c3.533-0.068,6.924-0.345,10.375-0.749
						c3.448-0.4,6.922-0.99,10.447-1.655c7.052-1.326,14.256-3.27,21.69-5.323c7.435-2.043,15.1-4.197,23.113-5.839
						c7.988-1.634,16.385-2.78,24.838-2.644c8.411,0.159,16.728,1.315,24.639,3.647c6.349,1.873,12.45,4.412,18.064,7.683
						c7.055,1.512,13.867,3.85,20.114,7.172c0.132,0.072,0.221,0.216,0.214,0.376c-0.011,0.223-0.2,0.394-0.422,0.383
						c-2.313-0.099-4.602-0.154-6.872-0.171c5.567,0.89,10.998,2.332,16.129,4.445c0.133,0.056,0.232,0.186,0.24,0.34
						c0.011,0.214-0.154,0.397-0.369,0.408c-1.805,0.1-3.592,0.225-5.365,0.373c0.799,0.162,1.595,0.341,2.385,0.541
						c0.111,0.029,0.206,0.12,0.234,0.241c0.039,0.168-0.062,0.331-0.225,0.364c-2.116,0.441-4.182,0.936-6.223,1.46l0.641,3.601
						c0.112-0.051,0.217-0.112,0.33-0.162l5.572,4.568c-0.207,0.146-0.41,0.291-0.61,0.436l4.221,1.302
						c-4.145,5.532-4.965,9.128-8.106,18.434c2.048-15.087-8.488-7.793-8.488-7.793c2.781-13.298-6.224-6.691-11.855-1.937
						c0.935-1.051,1.906-2.079,2.897-3.094c-5.018,4.404-10.628,10.255-18.633,18.616c0.33-1.861-1.03-6.052-23.909,0.317
						c0,0,2.055-8.1-20.834-4.715c0,0,4.11-8.866-21.841-9.188c0,0,4.11-8.463-27.926-13.177c0,0,0.001-0.015,0.001-0.043
						c0.969-0.199,1.937-0.406,2.909-0.628c3.385-0.77,6.775-1.732,10.207-2.773c0.53-0.16,1.062-0.331,1.593-0.499
						c-4.718,1.369-9.576,2.59-14.606,3.509c-0.042,0.007-0.085,0.013-0.127,0.021c-0.244-2.112-2.965-11.851-31.987-17.931
						C74.039,99.668,76.556,99.691,79.072,99.638z"/>
				</g>
				<g>
					<path style="fill:#2D91CF;" d="M198.385,82.952c-40.322-6.776-79.455,19.792-106.387,19.774c0,0,17.344,21.295,50.474,5.972
						c29.446-13.618,40.043-18.722,57.106-19.297L198.385,82.952z"/>
					<path style="opacity:0.32;fill:#FFFFFF;" d="M108.341,106.442c9.359,3.301,19.996,2.249,31.638-3.136l2.314-1.07
						c13.616-6.3,23.318-10.79,31.772-13.802c-14.836,1.713-29.35,6.558-42.694,11.014
						C123.393,102.112,115.664,104.693,108.341,106.442z"/>
				</g>
				<g>
					<path style="fill:#2D91CF;" d="M220.639,84.655c-40.842-1.932-76.537,29.102-103.28,32.287c0,0,19.753,19.081,50.826-0.074
						c27.617-17.024,37.532-23.352,54.405-25.952L220.639,84.655z"/>
					<path style="opacity:0.32;fill:#FFFFFF;" d="M134.028,118.688c9.685,2.165,20.121-0.146,31.04-6.877l2.17-1.338
						c12.77-7.875,21.87-13.487,29.905-17.483c-14.527,3.466-28.361,10.003-41.081,16.013
						C148.459,112.598,141.091,116.08,134.028,118.688z"/>
				</g>
				<g>
					<path style="fill:#2D91CF;" d="M219.754,87.813c1.581,0.972,3.115,2.019,4.586,3.151c1.288,0.991,2.517,2.059,3.692,3.183
						c-9.559,4.886-18.511,12.501-35.457,26.695c-25.956,21.743-46.643,6.874-46.643,6.874
						C166.373,122.203,190.039,97.481,219.754,87.813z"/>
					<path style="opacity:0.32;fill:#FFFFFF;" d="M161.467,127.087c9.18,0.69,18.45-2.828,27.571-10.469l1.813-1.518
						c10.667-8.938,18.268-15.308,25.108-20.052c-12.87,5.127-24.693,12.979-35.564,20.2
						C173.897,119.565,167.601,123.747,161.467,127.087z"/>
				</g>
				<g>
					<path style="fill:#2D91CF;" d="M227.481,93.638c1.693,1.564,3.275,3.246,4.667,5.084c0.951,1.256,1.808,2.579,2.571,3.954
						c-5.844,5.318-12.523,12.356-21.997,22.269c-23.264,24.343-45.135,11.723-45.135,11.723
						C185.083,129.834,203.533,107.387,227.481,93.638z"/>
					<path style="opacity:0.32;fill:#FFFFFF;" d="M182.79,134.414c9.095-0.276,17.842-4.746,26.017-13.3l1.625-1.7
						c9.56-10.007,16.372-17.138,22.605-22.573c-12.12,6.447-22.929,15.495-32.867,23.815
						C194.23,125.631,188.473,130.45,182.79,134.414z"/>
				</g>
				<g>
					<path style="opacity:0.42;fill:#5C5C5C;" d="M185.21,98.671c-40.972,0.234-80.158,15.799-120.386,0.325
						c4.736,0.575,9.492,0.742,14.249,0.643c3.533-0.068,6.924-0.346,10.375-0.749c2.337-0.271,4.687-0.634,7.055-1.044
						c-1.854,0.099-3.716,0.177-5.598,0.2c-5.628,0.096-11.409-0.344-17.105-1.446c-2.843-0.578-5.657-1.331-8.399-2.261
						c-2.743-0.928-5.395-2.082-7.95-3.359c-5.107-2.578-9.751-5.797-13.942-9.371c-4.181-3.597-11.781-12.938-11.407-13.494
						c6.163,3.749,19.831,10.605,29.202,13.329c9.363,2.787,18.856,2.98,28.625,1.688c2.443-0.309,4.904-0.708,7.383-1.166
						c2.481-0.434,4.981-0.92,7.499-1.445l15.335-3.275c10.368-2.199,21.042-4.151,31.861-5.35
						c5.405-0.637,10.851-1.048,16.302-1.307c1.364-0.049,2.727-0.117,4.092-0.149c1.361-0.038,2.714-0.082,4.169-0.069
						c2.853-0.027,5.736,0.105,8.617,0.32c5.772,0.481,11.588,1.475,17.298,3.196c5.702,1.719,11.293,4.172,16.408,7.471
						c2.559,1.64,4.989,3.493,7.242,5.53c2.255,2.032,4.367,4.215,6.225,6.582c3.212,3.996,5.768,8.408,7.705,12.977
						c0.445,0.172,0.895,0.334,1.336,0.515c0.133,0.056,0.232,0.186,0.24,0.34c0.011,0.214-0.154,0.397-0.369,0.408
						c-0.227,0.012-0.45,0.029-0.676,0.042c0.143,0.363,0.293,0.724,0.429,1.088c2.019,5.427,3.183,11.027,3.615,16.583
						c0.211,2.78,0.243,5.552,0.082,8.299c-0.166,2.742-0.486,5.478-1.139,8.124l-0.002,0.008c-0.036,0.143-0.148,0.26-0.301,0.295
						c-0.216,0.049-0.431-0.087-0.479-0.303c-1.151-5.123-2.685-9.998-4.567-14.633c-0.857,1.961-1.598,4.118-2.508,6.857
						C231.185,121.464,218.36,98.481,185.21,98.671z"/>
				</g>
				<g>
					<path style="fill:#319DE0;" d="M243.583,141.847c0.652-2.646,0.972-5.383,1.139-8.124c0.161-2.747,0.129-5.519-0.082-8.299
						c-0.432-5.555-1.596-11.156-3.615-16.583c-2.02-5.418-4.895-10.679-8.665-15.37c-1.859-2.367-3.97-4.55-6.226-6.582
						c-2.253-2.038-4.683-3.89-7.242-5.53c-5.115-3.299-10.706-5.752-16.408-7.471c-5.71-1.721-11.527-2.714-17.298-3.196
						c-2.881-0.215-5.764-0.347-8.617-0.32c-1.455-0.013-2.808,0.03-4.169,0.069c-1.365,0.032-2.728,0.1-4.092,0.149
						c-5.452,0.259-10.897,0.67-16.302,1.307c-10.819,1.199-21.492,3.152-31.861,5.35l-15.335,3.275
						c-2.517,0.524-5.018,1.01-7.499,1.445c-2.478,0.458-4.939,0.856-7.383,1.166c-9.769,1.291-19.262,1.099-28.625-1.688
						c-9.372-2.724-23.039-9.58-29.202-13.329c-0.374,0.556,7.226,9.897,11.407,13.494c4.191,3.574,8.835,6.794,13.942,9.371
						c2.554,1.278,5.207,2.432,7.95,3.359c2.741,0.931,5.555,1.683,8.399,2.261c5.697,1.101,11.477,1.542,17.105,1.446
						c2.817-0.035,5.603-0.167,8.356-0.358c2.75-0.215,5.466-0.497,8.154-0.801c5.38-0.589,10.635-1.387,15.831-2.116
						c10.387-1.503,20.545-2.925,30.71-3.847c5.082-0.441,10.155-0.81,15.235-1.045c1.27-0.048,2.539-0.116,3.81-0.149
						c1.274-0.039,2.555-0.079,3.736-0.093c2.419-0.064,4.807,0.017,7.188,0.095c9.485,0.477,18.644,2.207,26.734,6.087
						c8.119,3.796,15.129,9.911,20.527,17.949c1.362,1.996,2.582,4.12,3.762,6.309c1.136,2.205,2.225,4.483,3.173,6.846
						c1.937,4.722,3.505,9.697,4.68,14.926c0.049,0.216,0.263,0.352,0.479,0.303c0.153-0.034,0.266-0.152,0.301-0.295
						L243.583,141.847z"/>
					<path style="opacity:0.45;fill:#E6F8FF;" d="M238.575,116.918c-0.522-2.198-1.173-4.348-1.951-6.439
						c-1.94-5.203-4.606-9.936-7.924-14.065c-1.616-2.057-3.479-4.026-5.71-6.035c-2.054-1.859-4.284-3.562-6.631-5.064
						c-4.515-2.913-9.638-5.243-15.231-6.929c-5.022-1.514-10.517-2.528-16.333-3.012c-2.77-0.206-5.219-0.307-7.473-0.307
						l-0.715,0.004l-0.584-0.002c-1.083,0-2.118,0.03-3.152,0.059l-0.338,0.01c-0.849,0.021-1.676,0.054-2.502,0.087l-1.551,0.06
						c-5.723,0.273-10.938,0.691-15.925,1.279c-9.35,1.036-19.335,2.714-31.436,5.28l-15.328,3.274
						c-2.772,0.576-5.278,1.059-7.671,1.477c-2.728,0.504-5.219,0.898-7.603,1.199c-4.095,0.542-7.906,0.806-11.641,0.806
						c-6.734,0-12.921-0.868-18.915-2.652c-1.556-0.452-3.107-0.964-4.668-1.54c1.411,0.863,2.836,1.658,4.271,2.382
						c2.581,1.291,4.983,2.307,7.337,3.103c2.519,0.854,5.152,1.563,7.831,2.108c4.678,0.904,9.617,1.364,14.667,1.364
						c0.475,0,0.95-0.005,1.425-0.012c2.551-0.031,5.201-0.145,8.108-0.348c2.316-0.181,4.772-0.423,7.953-0.783
						c4.14-0.453,8.27-1.042,12.264-1.612c0,0,2.328-0.332,3.443-0.488c10.421-1.508,20.634-2.94,30.938-3.874
						c5.722-0.497,10.771-0.843,15.441-1.06l1.362-0.057c0.845-0.037,1.692-0.073,2.541-0.096l0.365-0.011
						c1.182-0.036,2.356-0.071,3.445-0.083c0.582-0.016,1.237-0.023,1.889-0.023c1.837,0,3.634,0.059,5.37,0.116l0.136,0.005
						c11.25,0.564,20.6,2.706,28.609,6.546c8.822,4.125,16.57,10.892,22.394,19.565
						C236.208,112.796,237.304,114.606,238.575,116.918z"/>
				</g>
			</g>
		</g>
		<g>
			<g>
				<g>
					<path style="fill:#2372A3;" d="M301.805,179.335c-0.243-2.693-0.895-5.362-2.058-7.894c-1.149-2.525-2.86-4.879-4.979-6.696
						c-2.109-1.832-4.549-3.133-7.009-3.939c-2.556-0.841-5.094-1.242-7.586-1.364v6.677c1.717,0.402,3.341,0.935,4.797,1.658
						c3.248,1.621,5.419,4.042,6.414,7.103c0.507,1.522,0.729,3.215,0.691,4.895c-0.023,0.825-0.1,1.704-0.273,2.271
						c-0.104,0.375-0.178,0.755-0.323,1.112l-0.187,0.542l-0.234,0.525c-1.228,2.778-3.684,5.203-6.759,7.315
						c-3.097,2.1-6.729,3.878-10.538,5.494c-3.825,1.602-7.807,3.125-11.885,4.623c-8.134,3.081-16.608,6.129-24.973,10.684
						c-4.177,2.279-8.363,4.907-12.281,8.339c-3.902,3.398-7.589,7.676-10.096,12.871c-1.253,2.581-2.19,5.353-2.763,8.162
						c-0.578,2.81-0.797,5.644-0.743,8.395c0.026,1.329,0.105,2.838,0.341,4.331c0.201,1.49,0.564,2.977,0.987,4.44
						c0.905,2.911,2.237,5.691,3.864,8.123c3.268,4.905,7.387,8.48,11.424,11.392c4.065,2.91,8.155,5.243,12.119,7.411
						c3.96,2.172,7.839,4.144,11.457,6.171c3.608,2.024,6.995,4.109,9.742,6.355c2.781,2.233,4.802,4.572,5.883,6.915
						c0.52,1.188,0.896,2.385,1.035,3.722c0.145,1.279,0.119,2.927-0.076,4.331c-0.398,2.851-1.51,5.375-3.495,7.926
						c-1.975,2.54-4.819,4.981-8.025,7.386c-3.23,2.405-6.844,4.747-10.585,7.322c-3.736,2.577-7.639,5.397-11.31,9.023
						c-1.826,1.823-3.601,3.835-5.153,6.135c-1.564,2.277-2.882,4.846-3.831,7.549c-0.929,2.711-1.499,5.546-1.655,8.318
						c-0.162,2.766-0.029,5.478,0.502,8.249c0.518,2.754,1.424,5.481,2.686,7.982c1.24,2.515,2.848,4.771,4.578,6.761
						c3.487,3.998,7.457,6.923,11.345,9.458c3.892,2.537,7.778,4.679,11.463,6.849c3.674,2.182,7.194,4.34,10.203,6.864
						c3.028,2.494,5.486,5.353,7.052,8.718c0.771,1.686,1.326,3.496,1.64,5.408c0.326,1.915,0.411,3.908,0.282,5.862
						c-0.13,1.962-0.549,3.908-1.233,5.802c-0.689,1.892-1.666,3.715-2.814,5.477c-2.334,3.509-5.455,6.628-8.701,9.609
						c3.882-2.09,7.66-4.515,10.923-7.775c3.287-3.209,5.843-7.488,7.023-12.228c0.61-2.367,0.849-4.785,0.841-7.238
						c0.003-2.461-0.369-4.974-1.081-7.411c-0.718-2.432-1.777-4.79-3.119-6.917c-1.323-2.148-2.886-4.086-4.536-5.873
						c-3.35-3.521-7.018-6.447-10.642-9.104c-3.618-2.675-7.192-5.146-10.447-7.684c-3.227-2.551-6.157-5.173-8.23-7.977
						c-2.072-2.816-3.313-5.678-3.681-8.819c-0.207-1.55-0.166-3.254,0.002-4.853c0.17-1.6,0.573-3.079,1.132-4.488
						c1.144-2.796,3.132-5.339,5.829-7.755c2.702-2.405,6.002-4.649,9.563-6.91c3.565-2.264,7.408-4.539,11.321-7.217
						c3.903-2.692,7.942-5.819,11.504-10.1c1.763-2.139,3.396-4.555,4.657-7.235c1.286-2.663,2.174-5.562,2.671-8.459
						c0.487-2.923,0.594-5.692,0.314-8.772c-0.279-3.029-1.114-6.101-2.343-8.926c-1.259-2.809-2.903-5.374-4.736-7.555
						c-1.831-2.195-3.804-4.096-5.825-5.738c-4.048-3.304-8.185-5.79-12.203-8.068c-4.024-2.265-7.953-4.279-11.699-6.283
						c-3.739-2.004-7.278-4.024-10.357-6.2c-3.069-2.175-5.636-4.5-7.27-6.893c-0.832-1.196-1.41-2.409-1.842-3.67
						c-0.184-0.641-0.371-1.282-0.466-1.964c-0.125-0.67-0.169-1.355-0.202-2.214c-0.116-3.264,0.42-6.219,1.695-8.957
						c1.264-2.74,3.312-5.326,5.968-7.715c2.652-2.384,5.859-4.561,9.309-6.581c6.942-4.024,14.786-7.51,22.77-11.289
						c3.988-1.927,8.055-3.886,12.087-6.168c4.031-2.28,8.092-4.806,11.925-8.086c1.906-1.654,3.756-3.513,5.386-5.684
						c1.627-2.161,3.034-4.661,3.883-7.402l0.31-1.026l0.239-1.045c0.172-0.694,0.253-1.401,0.349-2.103
						C301.972,182.024,301.912,180.696,301.805,179.335z"/>
					<path style="fill:#1C5B82;" d="M259.682,276.897c-1.009-0.568-2.012-1.12-3.008-1.66c-2.505,1.515-4.999,3.047-7.479,4.603
						c-2.726,1.71-5.466,3.395-8.2,5.092c-0.438,0.272-0.871,0.557-1.305,0.839c0.021,0.012,0.042,0.024,0.063,0.035
						c3.96,2.172,7.839,4.144,11.457,6.171c2.211,1.24,4.337,2.504,6.285,3.813c0.524-0.385,1.057-0.741,1.553-1.066
						c1.695-1.113,3.492-2.051,5.217-3.113c2.655-1.634,5.354-3.197,8.076-4.717c0.364-0.203,0.731-0.401,1.096-0.602
						c-0.514-0.459-1.032-0.902-1.554-1.326C267.837,281.661,263.7,279.175,259.682,276.897z"/>
					<path style="fill:#1C5B82;" d="M236.252,350.972c2.639,1.784,5.331,3.558,7.892,5.479c0.203-0.192,0.403-0.384,0.615-0.574
						c2.702-2.405,6.002-4.649,9.563-6.91c1.547-0.982,3.154-1.973,4.788-2.991c-2.303-2.128-4.719-4.123-7.295-5.947
						c-1.568-1.111-3.188-2.164-4.9-3.04c-0.496-0.254-1.05-0.53-1.629-0.775c-3.614,2.502-7.367,5.247-10.907,8.743
						c-0.893,0.892-1.773,1.83-2.622,2.824C233.231,348.88,234.73,349.942,236.252,350.972z"/>
					<path style="fill:#1C5B82;" d="M257.643,408.281c0.524-0.416,8.245-5.468,8.805-5.852c-2.066-1.791-4.186-3.431-6.292-4.976
						c-1.816-1.343-3.621-2.634-5.381-3.909c-3.389,2.223-6.658,4.622-9.767,7.223c3.165,1.961,6.304,3.723,9.307,5.491
						C255.445,406.93,256.552,407.603,257.643,408.281z"/>
					<path style="fill:#1C5B82;" d="M257.509,217.867c-4.38-3.01-8.991-5.729-12.958-9.294c-2.551,1.15-5.105,2.384-7.649,3.769
						c-3.068,1.674-6.14,3.54-9.108,5.771c2.115,1.101,15.414,7.648,16.63,8.547c0.133-0.079,0.261-0.162,0.395-0.24
						c4.476-2.594,9.329-4.966,14.351-7.335C258.616,218.679,258.077,218.258,257.509,217.867z"/>
					<g style="opacity:0.46;">
						<path style="fill:#1C5B82;" d="M301.805,179.335c-0.243-2.693-0.895-5.362-2.058-7.894c-1.149-2.525-2.86-4.879-4.979-6.696
							c-2.109-1.832-4.549-3.133-7.009-3.939c-2.556-0.841-5.094-1.242-7.586-1.364v6.677c1.717,0.402,3.341,0.935,4.797,1.658
							c3.248,1.621,5.419,4.042,6.414,7.103c0.507,1.522,0.729,3.215,0.691,4.895c-0.023,0.825-0.1,1.704-0.273,2.271
							c-0.104,0.375-0.178,0.755-0.323,1.112l-0.187,0.542l-0.234,0.525c-1.228,2.778-3.684,5.203-6.759,7.315
							c-3.097,2.1-6.729,3.878-10.538,5.494c-3.825,1.602-7.807,3.125-11.885,4.623c-8.134,3.081-16.608,6.129-24.973,10.684
							c-4.177,2.279-8.363,4.907-12.281,8.339c-3.902,3.398-7.589,7.676-10.096,12.871c-1.253,2.581-2.19,5.353-2.763,8.162
							c-0.578,2.81-0.797,5.644-0.743,8.395c0.026,1.329,0.105,2.838,0.341,4.331c0.201,1.49,0.564,2.977,0.987,4.44
							c0.905,2.911,2.237,5.691,3.864,8.123c3.268,4.905,7.387,8.48,11.424,11.392c4.065,2.91,8.155,5.243,12.119,7.411
							c3.96,2.172,7.839,4.144,11.457,6.171c3.608,2.024,6.995,4.109,9.742,6.355c2.781,2.233,4.802,4.572,5.883,6.915
							c0.52,1.188,0.896,2.385,1.035,3.722c0.145,1.279,0.119,2.927-0.076,4.331c-0.398,2.851-1.51,5.375-3.495,7.926
							c-1.975,2.54-4.819,4.981-8.025,7.386c-3.23,2.405-6.844,4.747-10.585,7.322c-3.736,2.577-7.639,5.397-11.31,9.023
							c-1.826,1.823-3.601,3.835-5.153,6.135c-1.564,2.277-2.882,4.846-3.831,7.549c-0.929,2.711-1.499,5.546-1.655,8.318
							c-0.162,2.766-0.029,5.478,0.502,8.249c0.518,2.754,1.424,5.481,2.686,7.982c1.24,2.515,2.848,4.771,4.578,6.761
							c3.487,3.998,7.457,6.923,11.345,9.458c3.892,2.537,7.778,4.679,11.463,6.849c3.674,2.182,7.194,4.34,10.203,6.864
							c3.028,2.494,5.486,5.353,7.052,8.718c0.771,1.686,1.326,3.496,1.64,5.408c0.326,1.915,0.411,3.908,0.282,5.862
							c-0.13,1.962-0.549,3.908-1.233,5.802c-0.689,1.892-1.666,3.715-2.814,5.477c-2.334,3.509-5.455,6.628-8.701,9.609
							c3.882-2.09,7.66-4.515,10.923-7.775c3.287-3.209,5.843-7.488,7.023-12.228c0.61-2.367,0.849-4.785,0.841-7.238
							c0.003-2.461-0.369-4.974-1.081-7.411c-0.718-2.432-1.777-4.79-3.119-6.917c-1.323-2.148-2.886-4.086-4.536-5.873
							c-3.35-3.521-7.018-6.447-10.642-9.104c-3.618-2.675-7.192-5.146-10.447-7.684c-3.227-2.551-6.157-5.173-8.23-7.977
							c-2.072-2.816-3.313-5.678-3.681-8.819c-0.207-1.55-0.166-3.254,0.002-4.853c0.17-1.6,0.573-3.079,1.132-4.488
							c1.144-2.796,3.132-5.339,5.829-7.755c2.702-2.405,6.002-4.649,9.563-6.91c3.565-2.264,7.408-4.539,11.321-7.217
							c3.903-2.692,7.942-5.819,11.504-10.1c1.763-2.139,3.396-4.555,4.657-7.235c1.286-2.663,2.174-5.562,2.671-8.459
							c0.487-2.923,0.594-5.692,0.314-8.772c-0.279-3.029-1.114-6.101-2.343-8.926c-1.259-2.809-2.903-5.374-4.736-7.555
							c-1.831-2.195-3.804-4.096-5.825-5.738c-4.048-3.304-8.185-5.79-12.203-8.068c-4.024-2.265-7.953-4.279-11.699-6.283
							c-3.739-2.004-7.278-4.024-10.357-6.2c-3.069-2.175-5.636-4.5-7.27-6.893c-0.832-1.196-1.41-2.409-1.842-3.67
							c-0.184-0.641-0.371-1.282-0.466-1.964c-0.125-0.67-0.169-1.355-0.202-2.214c-0.116-3.264,0.42-6.219,1.695-8.957
							c1.264-2.74,3.312-5.326,5.968-7.715c2.652-2.384,5.859-4.561,9.309-6.581c6.942-4.024,14.786-7.51,22.77-11.289
							c3.988-1.927,8.055-3.886,12.087-6.168c4.031-2.28,8.092-4.806,11.925-8.086c1.906-1.654,3.756-3.513,5.386-5.684
							c1.627-2.161,3.034-4.661,3.883-7.402l0.31-1.026l0.239-1.045c0.172-0.694,0.253-1.401,0.349-2.103
							C301.972,182.024,301.912,180.696,301.805,179.335z M299.44,183.319l-0.042,0.31c-0.074,0.547-0.144,1.065-0.258,1.528
							l-0.229,1.005l-0.287,0.948c-0.701,2.259-1.884,4.508-3.512,6.669c-1.367,1.821-3.018,3.561-5.049,5.323
							c-3.91,3.347-8.029,5.83-11.542,7.817c-3.893,2.204-7.879,4.13-11.734,5.992l-0.219,0.105
							c-1.507,0.712-3.024,1.422-4.531,2.128c-6.527,3.053-12.692,5.938-18.396,9.244c-3.981,2.331-7.152,4.575-9.702,6.866
							c-2.969,2.671-5.167,5.523-6.529,8.477c-1.416,3.04-2.042,6.322-1.91,10.024c0.037,0.968,0.089,1.726,0.23,2.508
							c0.115,0.796,0.321,1.514,0.503,2.149l0.06,0.2c0.536,1.564,1.234,2.954,2.135,4.25c1.672,2.449,4.314,4.967,7.84,7.467
							c3.475,2.456,7.493,4.686,10.607,6.355c1.143,0.612,2.301,1.224,3.475,1.843c2.658,1.404,5.408,2.856,8.181,4.417
							c4.448,2.522,8.171,4.823,11.869,7.841c2.029,1.649,3.881,3.472,5.507,5.423c1.761,2.097,3.28,4.52,4.397,7.012
							c1.153,2.651,1.899,5.489,2.147,8.181c0.258,2.832,0.165,5.429-0.291,8.171c-0.471,2.746-1.325,5.455-2.469,7.824
							c-1.083,2.299-2.544,4.568-4.354,6.763c-3.536,4.249-7.558,7.269-11.026,9.66c-2.653,1.816-5.293,3.455-7.846,5.04
							c-1.156,0.719-2.291,1.423-3.4,2.128c-3.185,2.022-6.848,4.452-9.866,7.139c-3.097,2.775-5.202,5.593-6.44,8.62
							c-0.692,1.743-1.112,3.414-1.294,5.129c-0.209,1.993-0.207,3.813,0.006,5.412c0.401,3.43,1.75,6.681,4.117,9.899
							c1.941,2.625,4.612,5.223,8.666,8.428c2.109,1.644,4.281,3.212,6.58,4.872c1.294,0.934,2.608,1.883,3.928,2.858
							c2.979,2.185,6.838,5.158,10.336,8.834c1.728,1.873,3.122,3.676,4.237,5.486c1.241,1.967,2.2,4.096,2.866,6.35
							c0.655,2.246,0.988,4.517,0.984,6.744c0.008,2.448-0.242,4.621-0.767,6.655c-0.272,1.093-0.628,2.171-1.061,3.219
							c0.244-1.119,0.404-2.243,0.478-3.364c0.145-2.191,0.041-4.347-0.31-6.41c-0.341-2.079-0.954-4.1-1.82-5.991
							c-1.636-3.515-4.15-6.636-7.694-9.554c-3.149-2.642-6.763-4.853-10.497-7.071c-1.011-0.596-2.029-1.185-3.059-1.78
							c-2.722-1.574-5.535-3.202-8.32-5.017c-3.413-2.226-7.373-5.04-10.859-9.036c-1.773-2.04-3.202-4.146-4.242-6.256
							c-1.146-2.271-2.002-4.815-2.484-7.377c-0.472-2.464-0.624-4.973-0.465-7.677c0.142-2.525,0.672-5.183,1.532-7.694
							c0.854-2.431,2.081-4.85,3.546-6.98c1.304-1.933,2.895-3.825,4.876-5.803c3.642-3.598,7.58-6.404,10.984-8.752
							c1.162-0.799,2.313-1.577,3.444-2.343c2.544-1.72,4.947-3.344,7.21-5.029c3.916-2.937,6.608-5.423,8.477-7.829
							c2.247-2.888,3.507-5.762,3.965-9.042c0.222-1.587,0.254-3.427,0.084-4.92c-0.149-1.443-0.536-2.849-1.216-4.4
							c-1.238-2.683-3.44-5.294-6.565-7.803c-2.488-2.035-5.596-4.065-10.062-6.572c-2.025-1.135-4.082-2.227-6.258-3.382
							c-1.713-0.91-3.458-1.835-5.219-2.8c-3.829-2.095-7.917-4.424-11.881-7.263c-4.794-3.457-8.239-6.886-10.838-10.785
							c-1.513-2.261-2.749-4.859-3.575-7.517c-0.449-1.558-0.741-2.862-0.903-4.058c-0.19-1.204-0.289-2.478-0.32-4.062
							c-0.053-2.722,0.18-5.372,0.696-7.876c0.539-2.639,1.405-5.197,2.576-7.61c2.116-4.385,5.32-8.463,9.526-12.125
							c3.257-2.852,7.025-5.408,11.864-8.048c7.433-4.048,15.026-6.909,22.369-9.677l2.312-0.873
							c4.721-1.734,8.528-3.215,11.96-4.653c4.599-1.952,8.074-3.767,10.949-5.717c3.735-2.564,6.284-5.357,7.589-8.308l0.272-0.612
							l0.203-0.588c0.148-0.378,0.238-0.735,0.311-1.025l0.072-0.276c0.198-0.641,0.324-1.615,0.358-2.835
							c0.047-2.004-0.234-3.972-0.811-5.702c-1.183-3.643-3.81-6.574-7.592-8.462c-1.062-0.527-2.217-0.978-3.497-1.363v-2.304
							c1.568,0.21,3.056,0.55,4.504,1.027c2.307,0.756,4.451,1.96,6.202,3.481c1.826,1.565,3.338,3.6,4.383,5.896
							c1.003,2.183,1.626,4.581,1.856,7.132C299.573,180.898,299.607,182.013,299.44,183.319z"/>
					</g>
					<path style="opacity:0.3;fill:#FFFFFF;" d="M228.952,268.764c0.021-0.02,0.041-0.04,0.062-0.061
						c1.214-1.186,1.21-3.138,0.003-4.332c-1.256-1.241-2.312-2.484-3.157-3.722c-1.069-1.536-1.896-3.178-2.527-5.019l-0.053-0.158
						l-0.056-0.197c-0.196-0.682-0.44-1.53-0.582-2.496c-0.17-0.95-0.231-1.851-0.271-2.912c-0.15-4.208,0.569-7.954,2.195-11.448
						c1.055-2.285,2.536-4.501,4.418-6.618c0.967-1.088,0.95-2.73-0.079-3.76l-0.049-0.049c-1.103-1.103-2.904-1.098-3.951,0.042
						c-2.286,2.489-4.113,5.137-5.452,7.911c-1.056,2.178-1.839,4.49-2.325,6.872c-0.469,2.278-0.681,4.696-0.631,7.185
						c0.027,1.432,0.115,2.57,0.277,3.595l0.015,0.107c0.14,1.032,0.397,2.178,0.803,3.592c0.739,2.361,1.838,4.666,3.178,6.668
						c1.098,1.648,2.374,3.209,3.867,4.73C225.817,269.897,227.745,269.942,228.952,268.764z"/>
					<path style="opacity:0.3;fill:#FFFFFF;" d="M241.467,389.916c-1.778-1.681-3.214-3.269-4.403-4.877
						c-2.697-3.666-4.235-7.38-4.698-11.34c-0.247-1.844-0.252-3.915-0.016-6.157c0.213-2.003,0.705-3.958,1.51-5.984
						c0.651-1.593,1.505-3.127,2.57-4.619c0.608-0.852,0.407-2.036-0.458-2.627l-0.04-0.027c-0.887-0.605-2.089-0.348-2.637,0.564
						c-0.99,1.647-2.191,4.066-2.718,5.567c-0.769,2.243-1.242,4.616-1.369,6.863c-0.143,2.441-0.006,4.703,0.417,6.916
						c0.429,2.276,1.193,4.546,2.215,6.571c0.923,1.869,2.199,3.748,3.794,5.583c1.045,1.197,2.142,2.28,3.259,3.272
						c0.706,0.628,1.731,0.756,2.559,0.302C241.458,389.921,241.463,389.918,241.467,389.916z"/>
					<path style="opacity:0.3;fill:#FFFFFF;" d="M279.333,307.687c-0.218-2.366-0.871-4.854-1.886-7.187
						c-1.001-2.233-2.364-4.407-3.945-6.288c-0.152-0.183-0.307-0.365-0.464-0.545c-1.112-1.277-3.049-1.419-4.332-0.313
						l-0.048,0.041c-1.319,1.137-1.443,3.132-0.286,4.433c1.482,1.669,2.637,3.384,3.445,5.134l0.038,0.085
						c0.814,1.858,1.279,3.546,1.46,5.304c0.198,1.74,0.163,3.873-0.094,5.706c-0.53,3.794-2.033,7.238-4.594,10.529
						c-1.079,1.388-2.393,2.789-4.002,4.259c-1.284,1.173-1.224,3.019,0.138,4.101c0.014,0.011,0.029,0.023,0.043,0.034
						c1.005,0.797,2.439,0.773,3.411-0.065c1.611-1.389,3.212-2.956,4.705-4.75c1.644-1.994,2.972-4.055,3.95-6.131
						c1.018-2.11,1.779-4.525,2.201-6.978C279.488,312.55,279.569,310.277,279.333,307.687z"/>
					<path style="opacity:0.3;fill:#FFFFFF;" d="M287.374,196.076c-3.048,2.066-6.701,3.977-11.497,6.014
						c-2.514,1.053-5.22,2.125-8.314,3.295c-0.643,0.243-1.076,0.86-1.076,1.548l0,0c0,1.225,1.284,2.023,2.385,1.484
						c2.702-1.325,5.431-2.708,8.107-4.222c3.382-1.913,7.339-4.296,11.032-7.457c1.863-1.614,3.367-3.197,4.6-4.841
						c0.359-0.476,0.692-0.956,1-1.437C292.037,192.433,289.97,194.292,287.374,196.076z"/>
					<path style="fill:#2372A3;" d="M290.048,165.654c0,3.494-5.665,6.326-12.653,6.326c-6.672,0-12.822-2.374-13.364-5.63
						c-0.042-0.254,0.125-0.492,0.378-0.54c6.014-1.149,7.654-6.418,14.487-6.418C285.883,159.392,290.048,162.159,290.048,165.654z
						"/>
					<path style="opacity:0.46;fill:#1C5B82;" d="M287.902,167.261c-4.409-0.075-3.398,3.317-9.659,3.317
						c-1.241,0-4.464-0.173-5.617-0.636c-1.277-0.513-2.337-1.603-3.507-2.31c-1.132-0.684-2.338-1.174-3.652-1.367
						c-0.48-0.071-0.962-0.107-1.446-0.127c0.308,3.363,6.559,5.842,13.374,5.842c5.44,0,10.064-1.72,11.852-4.128
						C288.849,167.559,288.41,167.269,287.902,167.261z"/>
				</g>
				<path style="fill:#182A40;" d="M272.208,164.187c0.647-0.139,1.186-0.341,1.608-0.537c-0.006-0.005-0.014-0.008-0.02-0.013
					c0.8-0.57,1.816-1.084,2.724-1.458c0.98-0.404,2.667-0.641,2.772,0.353c0.092,0.872-1.698,1.439-2.194,1.549
					c-0.717,0.16-1.712,0.173-2.505-0.062C273.482,164.197,272.208,164.187,272.208,164.187z"/>
			</g>
			<g>
				<path style="fill:#2372A3;" d="M239.844,397.454c-3.623,2.657-7.292,5.583-10.642,9.104c-1.65,1.787-3.212,3.725-4.536,5.873
					c-1.342,2.127-2.4,4.485-3.118,6.917c-0.712,2.438-1.083,4.951-1.081,7.411c-0.008,2.452,0.231,4.871,0.841,7.238
					c1.18,4.74,3.736,9.019,7.023,12.228c3.264,3.26,7.042,5.685,10.923,7.775c-3.246-2.982-6.367-6.1-8.7-9.609
					c-1.148-1.762-2.125-3.585-2.814-5.477c-0.683-1.894-1.103-3.84-1.233-5.802c-0.129-1.954-0.044-3.947,0.282-5.862
					c0.314-1.911,0.868-3.722,1.64-5.408c1.566-3.365,4.023-6.225,7.052-8.718c3.01-2.525,6.53-4.682,10.203-6.865
					c0.602-0.355,1.217-0.71,1.829-1.065l-0.266-13.129C244.861,393.823,242.367,395.589,239.844,397.454z"/>
				<path style="fill:#1C5B82;" d="M247.248,392.065c-1.59,1.172-3.236,2.358-4.898,3.563v12.658
					c1.093-0.68,2.202-1.354,3.335-2.027c0.602-0.355,1.217-0.71,1.829-1.065L247.248,392.065z"/>
				<path style="opacity:0.46;fill:#1C5B82;" d="M244.486,404.24c-3.735,2.218-7.348,4.429-10.497,7.071
					c-3.543,2.918-6.058,6.039-7.694,9.554c-0.866,1.891-1.479,3.912-1.82,5.991c-0.35,2.063-0.455,4.219-0.31,6.41
					c0.074,1.121,0.234,2.245,0.478,3.364c-0.433-1.049-0.789-2.126-1.061-3.22c-0.524-2.034-0.775-4.207-0.767-6.655
					c-0.003-2.227,0.329-4.498,0.984-6.744c0.666-2.254,1.625-4.383,2.866-6.35c1.115-1.81,2.509-3.613,4.237-5.486
					c3.498-3.676,7.357-6.65,10.336-8.834c1.32-0.975,2.634-1.924,3.928-2.858c0.731-0.528,1.431-1.039,2.139-1.554l-0.058-2.865
					c-2.387,1.759-4.881,3.524-7.404,5.389c-3.623,2.657-7.292,5.583-10.642,9.104c-1.65,1.787-3.212,3.725-4.536,5.873
					c-1.342,2.127-2.4,4.485-3.118,6.917c-0.712,2.438-1.083,4.951-1.081,7.411c-0.008,2.452,0.231,4.871,0.841,7.238
					c1.18,4.74,3.736,9.019,7.023,12.228c3.264,3.26,7.042,5.685,10.923,7.775c-3.246-2.982-6.367-6.1-8.7-9.609
					c-1.148-1.762-2.125-3.585-2.814-5.477c-0.683-1.894-1.103-3.84-1.233-5.802c-0.129-1.954-0.044-3.947,0.282-5.862
					c0.314-1.911,0.868-3.722,1.64-5.408c1.566-3.365,4.023-6.225,7.052-8.718c3.01-2.525,6.53-4.682,10.203-6.865
					c0.602-0.355,1.217-0.71,1.829-1.065l-0.055-2.684C246.459,403.088,245.469,403.661,244.486,404.24z"/>
			</g>
			<g>
				<g>
					<path style="fill:#195073;" d="M260.958,84.191l-7.305,360.026c-0.041,2.017-1.709,3.619-3.727,3.578
						c-1.965-0.04-3.536-1.632-3.578-3.578l-7.305-360.026c-0.123-6.051,4.683-11.057,10.735-11.18
						c6.051-0.123,11.057,4.684,11.18,10.735C260.96,83.881,260.96,84.058,260.958,84.191z"/>
					<path style="fill:#2579AD;" d="M249.989,444.665c-0.275-0.005-0.505-0.238-0.511-0.517l-7.305-360.02
						c-0.088-4.316,3.352-7.899,7.669-7.986l0.164-0.002c4.227,0,7.736,3.441,7.823,7.67c0.002,0.104,0.001,0.231,0,0.327
						l-7.305,360.016c-0.006,0.282-0.24,0.512-0.522,0.512H249.989z"/>
					<path style="opacity:0.52;fill:#FFFFFF;" d="M250.727,228.923c-1.133-0.57-2.464,0.284-2.438,1.552L250,315.587l1.711-85.095
						c0.013-0.658-0.36-1.257-0.948-1.552C250.751,228.935,250.739,228.929,250.727,228.923z"/>
					<path style="opacity:0.52;fill:#FFFFFF;" d="M249.024,202.386c1.501,0.736,3.259-0.341,3.293-2.013l1.972-98.087
						c0.035-1.717-1.335-3.127-3.036-3.127h-2.504c-1.702,0-3.071,1.41-3.036,3.127l1.971,98.061
						c0.017,0.86,0.514,1.635,1.286,2.013C248.987,202.368,249.006,202.377,249.024,202.386z"/>
				</g>
				<g>
					<ellipse style="fill:#195073;" cx="250" cy="86.409" rx="15.653" ry="7.435"/>
					<path style="fill:#2579AD;" d="M263.265,86.036c0,3.286-5.939,5.95-13.265,5.95c-7.326,0-13.265-2.664-13.265-5.95
						c0-3.286,5.939-5.95,13.265-5.95C257.326,80.086,263.265,82.75,263.265,86.036z"/>
					<g style="opacity:0.44;">
						<path style="fill:#FFFFFF;" d="M261.357,86.646c-0.54,0.901-1.448,1.544-2.36,2.058c-0.931,0.502-1.919,0.886-2.93,1.169
							c-1.008,0.303-2.044,0.47-3.079,0.623c-1.04,0.11-2.084,0.171-3.128,0.167c-2.085-0.04-4.182-0.283-6.192-0.916
							c-1.005-0.305-1.986-0.717-2.9-1.256c-0.892-0.545-1.788-1.253-2.199-2.225c0.733,0.73,1.639,1.124,2.571,1.43
							c0.927,0.316,1.892,0.515,2.857,0.687c1.938,0.317,3.908,0.461,5.878,0.464c1.97,0.017,3.941-0.103,5.887-0.378
							c0.971-0.148,1.941-0.325,2.885-0.602C259.6,87.605,260.519,87.252,261.357,86.646z"/>
					</g>
				</g>
				<g>
					<path style="fill:#164766;" d="M250,87.714c-8.711,0-15.797-7.087-15.797-15.797c0-8.712,7.087-15.798,15.797-15.798
						c8.711,0,15.798,7.086,15.798,15.798C265.797,80.627,258.71,87.714,250,87.714z"/>
					<circle style="fill:#319DE0;" cx="250" cy="70.376" r="14.376"/>
					<path style="opacity:0.42;fill:#7D7D7D;" d="M250,56c-7.94,0-14.376,6.436-14.376,14.376S242.06,84.752,250,84.752
						c7.94,0,14.376-6.436,14.376-14.376S257.94,56,250,56z M250.1,80.559c-6.534,0-11.83-5.297-11.83-11.83
						c0-6.534,5.297-11.83,11.83-11.83c6.534,0,11.83,5.297,11.83,11.83C261.93,75.262,256.633,80.559,250.1,80.559z"/>
					<ellipse style="opacity:0.18;fill:#FFFFFF;" cx="250.2" cy="68.03" rx="8.686" ry="8.436"/>
					<path style="opacity:0.48;fill:#FFFFFF;" d="M257.306,61.531c1.027,1.779,0.718,3.881-0.69,4.694
						c-1.409,0.813-3.383,0.03-4.411-1.749c-1.027-1.779-0.718-3.881,0.691-4.694C254.304,58.969,256.279,59.752,257.306,61.531z"/>
					<path style="opacity:0.48;fill:#FFFFFF;" d="M260.801,68.448c0.763,1.322,0.34,2.996-0.946,3.739
						c-1.286,0.742-2.947,0.272-3.711-1.05c-0.763-1.322-0.34-2.996,0.946-3.738C258.377,66.656,260.038,67.126,260.801,68.448z"/>
				</g>
			</g>
			<g>
				<path style="fill:#2372A3;" d="M276.259,366.959c-0.156-2.772-0.726-5.607-1.655-8.318c-0.949-2.703-2.267-5.272-3.831-7.549
					c-1.552-2.3-3.326-4.312-5.153-6.135c-2.553-2.522-5.218-4.65-7.862-6.581c-1.157-0.846-2.311-1.658-3.448-2.442
					c-2.889-1.989-5.697-3.839-8.316-5.685c-0.772-0.545-1.533-1.089-2.269-1.636c-3.205-2.405-6.05-4.846-8.025-7.386
					c-1.985-2.551-3.096-5.075-3.495-7.926c-0.196-1.405-0.221-3.052-0.076-4.331c0.139-1.336,0.514-2.534,1.035-3.722
					c1.082-2.344,3.102-4.682,5.883-6.915c1.297-1.06,2.743-2.083,4.282-3.082v-20.01c-0.997,0.54-1.999,1.087-3.012,1.657
					c-4.018,2.278-8.155,4.764-12.203,8.068c-2.021,1.643-3.995,3.543-5.825,5.738c-1.832,2.182-3.477,4.746-4.736,7.555
					c-1.229,2.825-2.064,5.897-2.343,8.926c-0.281,3.08-0.174,5.849,0.313,8.772c0.497,2.897,1.385,5.795,2.671,8.458
					c1.261,2.68,2.894,5.097,4.657,7.235c3.562,4.281,7.602,7.408,11.504,10.1c3.913,2.678,7.755,4.953,11.321,7.217
					c0.237,0.151,0.47,0.301,0.705,0.452c3.29,2.109,6.336,4.213,8.858,6.458c0.767,0.688,1.471,1.387,2.12,2.098
					c1.633,1.787,2.89,3.657,3.708,5.657c0.559,1.409,0.962,2.887,1.132,4.487c0.168,1.599,0.209,3.303,0.002,4.853
					c-0.368,3.141-1.609,6.002-3.681,8.819c-0.512,0.693-1.077,1.374-1.686,2.047l-2.014,1.704l-0.322,15.353l2.012-1.086
					c0.212-0.136,0.423-0.262,0.635-0.4c3.888-2.535,7.858-5.461,11.345-9.458c1.73-1.99,3.338-4.246,4.578-6.761
					c1.263-2.501,2.168-5.228,2.686-7.982C276.288,372.437,276.421,369.725,276.259,366.959z"/>
				<path style="fill:#1C5B82;" d="M243.329,275.248c-0.702,0.381-1.4,0.756-2.108,1.149v20.29c0.678-0.484,1.384-0.961,2.108-1.434
					V275.248z"/>
				<g style="opacity:0.46;">
					<path style="opacity:0.65;fill:#1C5B82;" d="M264.536,367.873c-0.182-1.715-0.602-3.385-1.294-5.129
						c-1.151-2.815-3.064-5.449-5.815-8.036c-0.207-0.195-0.408-0.39-0.625-0.584c-3.018-2.687-6.681-5.116-9.866-7.139
						c-0.199-0.126-0.41-0.255-0.611-0.382c-0.918-0.578-1.842-1.156-2.79-1.746c-2.553-1.584-5.193-3.224-7.846-5.04
						c-3.468-2.392-7.49-5.412-11.026-9.66c-1.81-2.195-3.271-4.464-4.354-6.763c-1.144-2.369-1.998-5.078-2.469-7.824
						c-0.456-2.741-0.549-5.339-0.291-8.171c0.248-2.693,0.994-5.53,2.147-8.181c1.117-2.492,2.636-4.915,4.397-7.012
						c1.626-1.951,3.478-3.774,5.507-5.423c3.698-3.018,7.422-5.319,11.869-7.841c0.624-0.351,1.24-0.682,1.86-1.02v-2.683
						c-0.997,0.54-1.999,1.087-3.012,1.657c-4.018,2.278-8.155,4.764-12.203,8.068c-2.021,1.643-3.995,3.543-5.825,5.738
						c-1.832,2.182-3.477,4.746-4.736,7.555c-1.229,2.825-2.064,5.897-2.343,8.926c-0.281,3.08-0.174,5.849,0.313,8.772
						c0.497,2.897,1.385,5.795,2.671,8.458c1.261,2.68,2.894,5.097,4.657,7.235c3.562,4.281,7.602,7.408,11.504,10.1
						c3.913,2.678,7.755,4.953,11.321,7.217c0.237,0.151,0.47,0.301,0.705,0.452c3.29,2.109,6.336,4.213,8.858,6.458
						c0.767,0.688,1.471,1.387,2.12,2.098c1.633,1.787,2.89,3.657,3.708,5.657c0.559,1.409,0.962,2.887,1.132,4.487
						c0.168,1.599,0.209,3.303,0.002,4.853c-0.368,3.141-1.609,6.002-3.681,8.819c-0.512,0.693-1.077,1.374-1.686,2.047
						l-2.013,1.704l-0.081,3.45l2.024-1.711c1.464-1.415,2.654-2.753,3.647-4.097c2.367-3.218,3.715-6.469,4.116-9.899
						C264.743,371.686,264.746,369.866,264.536,367.873z"/>
					<path style="opacity:0.65;fill:#1C5B82;" d="M276.259,366.959c-0.156-2.772-0.726-5.607-1.655-8.318
						c-0.949-2.703-2.267-5.272-3.831-7.549c-1.552-2.3-3.326-4.312-5.153-6.135c-2.553-2.522-5.218-4.65-7.862-6.581
						c-1.157-0.846-2.311-1.658-3.448-2.442c-2.889-1.989-5.697-3.839-8.316-5.685c-0.772-0.545-1.533-1.089-2.269-1.636
						c-3.205-2.405-6.05-4.846-8.025-7.386c-1.985-2.551-3.096-5.075-3.495-7.926c-0.196-1.405-0.221-3.052-0.076-4.331
						c0.139-1.336,0.514-2.534,1.035-3.722c1.082-2.344,3.102-4.682,5.883-6.915c1.297-1.06,2.743-2.083,4.282-3.082v-2.782
						c-2.297,1.425-4.16,2.73-5.752,4.033c-3.124,2.509-5.327,5.12-6.565,7.803c-0.68,1.552-1.067,2.957-1.216,4.4
						c-0.17,1.493-0.138,3.333,0.084,4.92c0.458,3.28,1.718,6.153,3.965,9.042c1.87,2.405,4.561,4.892,8.477,7.829
						c1.202,0.895,2.449,1.774,3.729,2.658c1.132,0.781,2.287,1.565,3.481,2.371c1.131,0.765,2.282,1.543,3.444,2.342
						c1.494,1.031,3.093,2.157,4.723,3.392c2.083,1.579,4.218,3.342,6.262,5.36c1.981,1.977,3.573,3.87,4.876,5.803
						c1.465,2.13,2.692,4.55,3.546,6.98c0.86,2.512,1.389,5.17,1.532,7.695c0.159,2.704,0.007,5.213-0.466,7.677
						c-0.482,2.562-1.337,5.107-2.484,7.377c-1.04,2.11-2.469,4.216-4.242,6.256c-3.251,3.726-6.907,6.417-10.154,8.569
						l-2.013,1.228l-0.046,2.693c1.676-0.895,2.424-1.349,2.636-1.488c3.888-2.535,7.858-5.461,11.345-9.458
						c1.73-1.99,3.338-4.246,4.578-6.761c1.263-2.501,2.168-5.228,2.686-7.982C276.288,372.437,276.421,369.725,276.259,366.959z"/>
				</g>
				<path style="opacity:0.52;fill:#FFFFFF;" d="M270.791,367.279c-0.127-2.247-0.6-4.62-1.369-6.863
					c-0.76-2.163-1.855-4.316-3.164-6.222c-1.198-1.776-2.671-3.527-4.507-5.359c-1.341-1.324-2.734-2.54-4.13-3.668
					c-2.2-1.778-4.406-3.334-6.42-4.723c-1.138-0.783-2.268-1.547-3.378-2.298l-0.075-0.051c-0.554-0.374-1.076-0.734-1.617-1.102
					c-1.962-1.333-3.865-2.639-5.677-3.988c-4.15-3.112-7.033-5.786-9.079-8.419c-2.561-3.291-4.064-6.735-4.594-10.529
					c-0.257-1.833-0.292-3.967-0.094-5.706c0.181-1.758,0.646-3.446,1.46-5.304l0.038-0.085c1.094-2.37,2.817-4.676,5.134-6.888
					c1.37-1.308,2.125-3.136,2.125-5.03l0,0c0-1.995-2.316-3.095-3.862-1.834l0,0c-1.876,1.524-3.585,3.206-5.082,5.003
					c-1.581,1.881-2.943,4.055-3.945,6.288c-1.015,2.333-1.668,4.82-1.886,7.187c-0.236,2.59-0.155,4.863,0.261,7.37
					c0.421,2.453,1.182,4.867,2.201,6.978c0.978,2.077,2.306,4.137,3.95,6.131c3.286,3.95,7.096,6.804,10.389,9.075
					c2.596,1.777,5.2,3.395,7.719,4.958c0.362,0.224,0.706,0.442,1.063,0.665c0.795,0.494,1.593,0.99,2.364,1.478
					c2.829,1.797,6.028,3.911,8.896,6.273c0.467,0.384,0.927,0.774,1.373,1.171c3.461,3.101,5.835,6.297,7.256,9.773
					c0.804,2.026,1.297,3.98,1.509,5.984c0.236,2.242,0.231,4.313-0.016,6.157c-0.463,3.96-2.001,7.674-4.698,11.34
					c-0.859,1.161-1.843,2.312-2.994,3.494c-0.692,0.711-1.069,1.673-1.069,2.665v0.289c1.872-1.462,3.755-3.145,5.492-5.137
					c1.595-1.835,2.871-3.715,3.794-5.583c1.022-2.025,1.786-4.295,2.215-6.571C270.797,371.982,270.934,369.721,270.791,367.279z"
					/>
			</g>
			<g>
				<path style="fill:#2372A3;" d="M288.239,241.714c-0.573-2.809-1.511-5.581-2.763-8.162c-2.507-5.195-6.194-9.473-10.096-12.871
					c-3.918-3.432-8.104-6.06-12.281-8.339c-0.916-0.499-1.834-0.973-2.753-1.438c-5.66-2.865-11.344-5.124-16.919-7.243
					c-1.779-0.676-3.549-1.34-5.301-2.004c-4.078-1.498-8.06-3.021-11.885-4.623c-3.809-1.617-7.441-3.394-10.538-5.494
					c-3.075-2.112-5.53-4.537-6.758-7.315l-0.234-0.525l-0.187-0.542c-0.145-0.357-0.219-0.737-0.323-1.112
					c-0.174-0.567-0.25-1.446-0.273-2.271c-0.039-1.68,0.184-3.373,0.691-4.895c0.994-3.061,3.165-5.482,6.414-7.103
					c1.456-0.723,3.08-1.257,4.797-1.658v-6.676c-2.491,0.121-5.03,0.523-7.586,1.364c-2.459,0.806-4.899,2.107-7.008,3.939
					c-2.119,1.816-3.83,4.171-4.979,6.695c-1.163,2.532-1.815,5.201-2.058,7.894c-0.108,1.361-0.168,2.689,0.036,4.282
					c0.097,0.702,0.178,1.409,0.35,2.103l0.239,1.045l0.31,1.025c0.85,2.741,2.257,5.241,3.883,7.402
					c1.63,2.172,3.48,4.031,5.386,5.684c3.833,3.281,7.894,5.806,11.925,8.086c4.033,2.282,8.099,4.241,12.087,6.168
					c3.847,1.821,7.659,3.574,11.355,5.352c3.976,1.912,7.818,3.852,11.415,5.938c1.665,0.975,3.27,1.989,4.787,3.043
					c1.626,1.129,3.151,2.305,4.523,3.538c2.656,2.389,4.704,4.975,5.968,7.715c1.274,2.738,1.811,5.693,1.695,8.957
					c-0.033,0.859-0.077,1.544-0.202,2.214c-0.095,0.683-0.283,1.323-0.466,1.965c-0.431,1.26-1.01,2.474-1.842,3.669
					c-1.634,2.393-4.202,4.718-7.27,6.893c-1.002,0.708-2.067,1.395-3.157,2.075l-1.975,0.92l-0.383,20.102
					c0,0,2.905-1.44,3.387-1.705c3.964-2.168,8.054-4.501,12.119-7.411c4.037-2.912,8.155-6.487,11.424-11.393
					c1.628-2.432,2.96-5.212,3.864-8.123c0.423-1.463,0.786-2.949,0.987-4.44c0.236-1.493,0.315-3.001,0.341-4.33
					C289.036,247.358,288.816,244.524,288.239,241.714z"/>
				<path style="opacity:0.46;fill:#1C5B82;" d="M288.239,241.714c-0.573-2.809-1.511-5.581-2.763-8.162
					c-2.507-5.195-6.194-9.473-10.096-12.871c-3.918-3.432-8.104-6.06-12.281-8.339c-0.916-0.499-1.834-0.973-2.753-1.438
					c-5.66-2.865-11.344-5.124-16.919-7.243c-1.779-0.676-3.549-1.34-5.301-2.004c-4.078-1.498-8.06-3.021-11.885-4.623
					c-3.809-1.617-7.441-3.394-10.538-5.494c-3.075-2.112-5.53-4.537-6.758-7.315l-0.234-0.525l-0.187-0.542
					c-0.145-0.357-0.219-0.737-0.323-1.112c-0.174-0.567-0.25-1.446-0.273-2.271c-0.039-1.68,0.184-3.373,0.691-4.895
					c0.994-3.061,3.165-5.482,6.414-7.103c1.456-0.723,3.08-1.257,4.797-1.658v-6.676c-2.491,0.121-5.03,0.523-7.586,1.364
					c-2.459,0.806-4.899,2.107-7.008,3.939c-2.119,1.816-3.83,4.171-4.979,6.695c-1.163,2.532-1.815,5.201-2.058,7.894
					c-0.108,1.361-0.168,2.689,0.036,4.282c0.097,0.702,0.178,1.409,0.35,2.103l0.239,1.045l0.31,1.025
					c0.85,2.741,2.257,5.241,3.883,7.402c1.63,2.172,3.48,4.031,5.386,5.684c3.833,3.281,7.894,5.806,11.925,8.086
					c4.033,2.282,8.099,4.241,12.087,6.168c3.847,1.821,7.659,3.574,11.355,5.352c3.976,1.912,7.818,3.852,11.415,5.938
					c1.665,0.975,3.27,1.989,4.787,3.043c1.626,1.129,3.151,2.305,4.523,3.538c2.656,2.389,4.704,4.975,5.968,7.715
					c1.274,2.738,1.811,5.693,1.695,8.957c-0.033,0.859-0.077,1.544-0.202,2.214c-0.095,0.683-0.283,1.323-0.466,1.965
					c-0.431,1.26-1.01,2.474-1.842,3.669c-1.634,2.393-4.202,4.718-7.27,6.893c-1.002,0.708-2.067,1.395-3.157,2.075l-1.975,0.923
					l-0.06,3.024c0.105-0.063,2.189-1.279,2.294-1.342c1.445-0.874,2.892-1.8,4.257-2.765c3.526-2.499,6.167-5.018,7.84-7.467
					c0.901-1.296,1.6-2.686,2.135-4.25l0.06-0.199c0.182-0.635,0.388-1.354,0.503-2.149c0.141-0.782,0.193-1.539,0.23-2.508
					c0.132-3.702-0.494-6.984-1.91-10.024c-1.363-2.954-3.56-5.806-6.53-8.477c-1.71-1.537-3.709-3.054-6.036-4.589
					c-1.141-0.753-2.355-1.51-3.666-2.277c-3.997-2.316-8.231-4.425-12.646-6.53c-1.886-0.9-3.796-1.8-5.75-2.714
					c-1.507-0.706-3.024-1.416-4.531-2.128l-0.219-0.105c-3.854-1.863-7.84-3.788-11.734-5.992
					c-3.513-1.986-7.633-4.47-11.542-7.817c-2.032-1.762-3.682-3.502-5.049-5.323c-1.628-2.161-2.811-4.41-3.512-6.669l-0.287-0.948
					l-0.229-1.005c-0.115-0.463-0.184-0.981-0.258-1.528l-0.042-0.31c-0.167-1.306-0.133-2.421-0.026-3.773
					c0.23-2.551,0.853-4.949,1.856-7.132c1.045-2.296,2.557-4.331,4.383-5.896c1.751-1.522,3.894-2.725,6.202-3.481
					c1.449-0.476,2.937-0.816,4.504-1.026v2.303c-1.281,0.385-2.436,0.835-3.498,1.363c-3.782,1.888-6.409,4.819-7.592,8.462
					c-0.577,1.73-0.857,3.698-0.811,5.702c0.034,1.22,0.16,2.193,0.358,2.835l0.072,0.276c0.073,0.29,0.163,0.647,0.311,1.025
					l0.203,0.588l0.272,0.612c1.305,2.951,3.854,5.744,7.589,8.308c2.875,1.95,6.35,3.765,10.949,5.717
					c3.432,1.438,7.239,2.919,11.96,4.653l2.312,0.873c1.283,0.484,2.576,0.973,3.872,1.469c5.563,2.125,11.224,4.42,16.815,7.327
					c0.561,0.292,1.122,0.577,1.682,0.881c4.839,2.64,8.607,5.196,11.864,8.048c4.205,3.662,7.409,7.74,9.526,12.125
					c1.171,2.412,2.037,4.971,2.576,7.609c0.515,2.505,0.749,5.155,0.696,7.877c-0.031,1.584-0.131,2.858-0.32,4.061
					c-0.162,1.195-0.453,2.499-0.903,4.058c-0.827,2.658-2.062,5.256-3.576,7.517c-2.599,3.9-6.044,7.328-10.838,10.786
					c-3.964,2.839-8.051,5.167-11.881,7.263c-0.085,0.046-2.128,1.071-2.213,1.117l-0.068,2.691c0.479-0.259,2.928-1.486,3.41-1.75
					c3.964-2.168,8.054-4.501,12.119-7.411c4.037-2.912,8.155-6.487,11.424-11.393c1.628-2.432,2.96-5.212,3.864-8.123
					c0.423-1.463,0.786-2.949,0.987-4.44c0.236-1.493,0.315-3.001,0.341-4.33C289.036,247.358,288.816,244.524,288.239,241.714z"/>
				<path style="opacity:0.52;fill:#FFFFFF;" d="M282.872,242.817c-0.486-2.382-1.269-4.694-2.325-6.872
					c-1.934-4.006-4.882-7.75-8.766-11.132c-3.082-2.699-6.675-5.134-11.307-7.661c-0.084-0.046-0.169-0.087-0.253-0.132
					c-5.491-2.968-11.121-5.302-16.676-7.445c-1.685-0.65-3.364-1.285-5.03-1.912l-2.331-0.88c-4.746-1.743-8.58-3.235-12.062-4.693
					c-4.796-2.037-8.449-3.947-11.497-6.014c-2.596-1.784-4.663-3.643-6.237-5.617c0.307,0.481,0.641,0.961,1,1.437
					c1.234,1.644,2.738,3.227,4.6,4.841c3.692,3.162,7.649,5.544,11.031,7.457c3.819,2.162,7.752,4.061,11.556,5.898l0.219,0.105
					c1.466,0.694,2.966,1.396,4.457,2.094c1.486,0.695,2.945,1.379,4.39,2.063c5.005,2.367,9.771,4.708,14.287,7.327
					c0.753,0.441,1.47,0.879,2.17,1.315c3.179,1.984,5.834,3.935,8.054,5.93c3.287,2.956,5.737,6.15,7.28,9.493
					c1.627,3.494,2.345,7.24,2.195,11.448c-0.04,1.061-0.101,1.962-0.271,2.912c-0.142,0.965-0.386,1.814-0.582,2.496l-0.056,0.197
					l-0.053,0.158c-0.631,1.841-1.458,3.484-2.527,5.019c-1.873,2.745-4.767,5.516-8.598,8.232
					c-0.051,0.036-0.102,0.072-0.154,0.108c-0.842,0.591-1.359,1.541-1.359,2.57l0,0c0,2.52,2.846,4.013,4.901,2.554
					c0.082-0.058,0.163-0.116,0.245-0.174c4.476-3.228,7.672-6.399,10.055-9.976c1.34-2.002,2.439-4.307,3.178-6.668
					c0.406-1.413,0.664-2.56,0.803-3.592l0.015-0.107c0.162-1.025,0.249-2.163,0.277-3.595
					C283.553,247.513,283.341,245.095,282.872,242.817z"/>
				<g>
					<g>
						<path style="fill:#2372A3;" d="M209.952,165.654c0,3.494,5.665,6.326,12.653,6.326c6.672,0,12.822-2.374,13.364-5.63
							c0.042-0.254-0.126-0.492-0.378-0.54c-6.014-1.149-7.654-6.418-14.487-6.418C214.117,159.392,209.952,162.159,209.952,165.654
							z"/>
						<path style="opacity:0.46;fill:#2372A3;" d="M212.098,167.261c4.409-0.075,3.398,3.317,9.659,3.317
							c1.241,0,4.463-0.173,5.617-0.636c1.277-0.513,2.337-1.603,3.507-2.31c1.132-0.684,2.338-1.174,3.652-1.367
							c0.48-0.071,0.962-0.107,1.446-0.127c-0.308,3.363-6.559,5.842-13.374,5.842c-5.44,0-10.064-1.72-11.852-4.128
							C211.151,167.559,211.59,167.269,212.098,167.261z"/>
					</g>
					<path style="fill:#182A40;" d="M226.424,164.187c-0.647-0.139-1.186-0.341-1.608-0.537c0.006-0.005,0.014-0.008,0.021-0.013
						c-0.8-0.57-1.816-1.084-2.724-1.458c-0.98-0.404-2.667-0.641-2.771,0.353c-0.092,0.872,1.698,1.439,2.194,1.549
						c0.717,0.16,1.712,0.173,2.505-0.062C225.151,164.197,226.424,164.187,226.424,164.187z"/>
				</g>
			</g>
		</g>
	</g>
</g>
</svg>
